<?xml version="1.0" encoding="UTF-8"?>
<svg xmlns="http://www.w3.org/2000/svg" xmlns:xlink="http://www.w3.org/1999/xlink" width="3720" height="2592" viewBox="0 0 3720 2592">
<path fill-rule="nonzero" fill="rgb(99.609375%, 99.609375%, 99.609375%)" fill-opacity="1" d="M 0 0 L 0 2592 C 1240 2592 2480 2592 3720 2592 C 3720 1728 3720 864 3720 0 L 0 0 "/>
<path fill-rule="nonzero" fill="rgb(0%, 0%, 0%)" fill-opacity="1" d="M 1740.960938 463.710938 L 1798.851562 419.160156 C 1804.019531 415.179688 1811.441406 416.148438 1815.421875 421.320312 L 1859.96875 479.210938 C 1863.949219 484.390625 1862.980469 491.800781 1857.820312 495.78125 L 1799.921875 540.339844 C 1797.429688 542.25 1794.289062 543.089844 1791.191406 542.691406 C 1788.078125 542.28125 1785.261719 540.660156 1783.351562 538.179688 L 1738.800781 480.28125 C 1736.890625 477.800781 1736.039062 474.660156 1736.441406 471.550781 C 1736.851562 468.441406 1738.46875 465.621094 1740.960938 463.710938 M 1755.359375 482.441406 L 1757.519531 465.871094 L 1802.078125 523.769531 L 1785.511719 521.609375 L 1843.410156 477.058594 L 1841.25 493.621094 L 1796.691406 435.730469 L 1813.261719 437.890625 Z M 1755.359375 482.441406 "/>
<path fill-rule="nonzero" fill="rgb(0%, 0%, 0%)" fill-opacity="1" d="M 1856.75 374.609375 L 1914.648438 330.058594 C 1919.820312 326.070312 1927.230469 327.039062 1931.21875 332.210938 L 1975.769531 390.109375 C 1979.75 395.28125 1978.78125 402.691406 1973.609375 406.679688 L 1915.710938 451.230469 C 1913.230469 453.140625 1910.089844 453.988281 1906.980469 453.578125 C 1903.878906 453.179688 1901.058594 451.558594 1899.140625 449.070312 L 1854.589844 391.171875 C 1852.679688 388.691406 1851.839844 385.550781 1852.238281 382.441406 C 1852.640625 379.339844 1854.269531 376.519531 1856.75 374.609375 M 1871.160156 393.328125 L 1873.320312 376.769531 L 1917.871094 434.660156 L 1901.308594 432.5 L 1959.199219 387.949219 L 1957.039062 404.519531 L 1912.488281 346.621094 L 1929.058594 348.78125 Z M 1871.160156 393.328125 "/>
<path fill-rule="nonzero" fill="rgb(0%, 0%, 0%)" fill-opacity="1" d="M 1638.5 450.371094 L 1927.988281 227.609375 C 1933.160156 223.621094 1940.578125 224.589844 1944.558594 229.761719 L 2122.769531 461.351562 C 2126.75 466.519531 2125.78125 473.941406 2120.609375 477.921875 L 1831.128906 700.679688 C 1828.640625 702.589844 1825.5 703.441406 1822.390625 703.03125 C 1819.289062 702.628906 1816.46875 701.011719 1814.558594 698.519531 L 1636.351562 466.929688 C 1634.441406 464.449219 1633.589844 461.308594 1634 458.199219 C 1634.398438 455.101562 1636.019531 452.28125 1638.5 450.371094 M 1652.910156 469.089844 L 1655.070312 452.519531 L 1833.289062 684.121094 L 1816.71875 681.960938 L 2106.199219 459.191406 L 2104.039062 475.761719 L 1925.828125 244.171875 L 1942.398438 246.328125 Z M 1652.910156 469.089844 "/>
<path fill-rule="nonzero" fill="rgb(0%, 0%, 0%)" fill-opacity="1" d="M 1758.820312 726.511719 L 2164.101562 414.640625 C 2169.269531 410.660156 2176.691406 411.628906 2180.671875 416.800781 L 2225.21875 474.691406 C 2229.199219 479.871094 2228.230469 487.28125 2223.058594 491.261719 L 1817.78125 803.128906 C 1815.300781 805.039062 1812.160156 805.890625 1809.050781 805.480469 C 1805.941406 805.078125 1803.128906 803.460938 1801.21875 800.980469 L 1756.660156 743.078125 C 1754.75 740.589844 1753.898438 737.449219 1754.308594 734.339844 C 1754.71875 731.238281 1756.339844 728.421875 1758.820312 726.511719 M 1773.230469 745.230469 L 1775.390625 728.671875 L 1819.941406 786.570312 L 1803.371094 784.410156 L 2208.648438 472.53125 L 2206.5 489.109375 L 2161.941406 431.210938 L 2178.511719 433.371094 Z M 1773.230469 745.230469 "/>
<path fill-rule="nonzero" fill="rgb(0%, 0%, 0%)" fill-opacity="1" d="M 1745.480469 828.960938 C 1742.988281 830.871094 1741.371094 833.691406 1740.96875 836.800781 C 1740.558594 839.898438 1741.410156 843.039062 1743.320312 845.53125 L 2212.46875 1455.199219 L 2231.199219 1440.789062 L 1769.25 840.480469 L 2271.601562 453.921875 L 2733.550781 1054.230469 L 2752.269531 1039.820312 L 2283.121094 430.140625 C 2279.140625 424.96875 2271.71875 424.011719 2266.550781 427.988281 Z M 1745.480469 828.960938 "/>
<path fill-rule="nonzero" fill="rgb(0%, 0%, 0%)" fill-opacity="1" d="M 2752.25 1039.839844 L 2733.53125 1054.25 C 2838.71875 1192.871094 2812.441406 1390.628906 2674.308594 1496.929688 C 2536.171875 1603.226562 2338.269531 1577.980469 2231.199219 1440.789062 L 2212.46875 1455.210938 C 2327.511719 1602.726562 2540.238281 1629.910156 2688.710938 1515.660156 C 2837.191406 1401.398438 2865.410156 1188.808594 2752.269531 1039.820312 Z M 2752.25 1039.839844 "/>
<path fill-rule="nonzero" fill="rgb(0%, 0%, 0%)" fill-opacity="1" d="M 2453.308594 1228.269531 C 2424.101562 1258 2420.53125 1305.460938 2446.671875 1339.429688 C 2475.25 1376.578125 2528.539062 1383.519531 2565.691406 1354.941406 C 2602.828125 1326.351562 2609.769531 1273.070312 2581.191406 1235.921875 C 2555.050781 1201.949219 2508.25 1193.238281 2472.03125 1213.859375 L 2472.039062 1213.859375 L 2478.738281 1222.570312 C 2482.71875 1227.75 2481.75 1235.160156 2476.578125 1239.140625 C 2471.410156 1243.121094 2463.988281 1242.160156 2460.019531 1236.980469 Z M 2476.578125 1239.140625 C 2503.390625 1218.519531 2541.839844 1223.519531 2562.46875 1250.328125 C 2583.089844 1277.128906 2578.078125 1315.589844 2551.28125 1336.210938 C 2524.46875 1356.839844 2486.019531 1351.828125 2465.390625 1325.019531 C 2444.769531 1298.21875 2449.78125 1259.769531 2476.578125 1239.140625 Z M 2279.589844 805.109375 C 2277.109375 807.019531 2275.488281 809.839844 2275.089844 812.941406 C 2274.679688 816.058594 2275.53125 819.191406 2277.441406 821.679688 L 2291.199219 839.558594 L 2309.929688 825.160156 L 2303.371094 816.628906 L 2342.539062 786.488281 L 2349.101562 795.011719 L 2367.820312 780.601562 L 2354.058594 762.710938 C 2350.078125 757.539062 2342.660156 756.578125 2337.488281 760.558594 Z M 2367.820312 780.601562 L 2349.101562 795.011719 L 2372.679688 825.660156 L 2333.511719 855.808594 L 2309.929688 825.148438 L 2291.199219 839.558594 L 2321.988281 879.570312 C 2323.898438 882.058594 2326.71875 883.679688 2329.828125 884.089844 C 2332.929688 884.488281 2336.070312 883.640625 2338.558594 881.730469 L 2396.449219 837.179688 C 2401.628906 833.199219 2402.589844 825.78125 2398.609375 820.609375 Z M 2377.660156 851.640625 L 2358.941406 866.050781 L 2394.609375 912.410156 L 2372.238281 1084.179688 L 2392.621094 1110.660156 L 2418.679688 910.609375 C 2419.078125 907.5 2418.230469 904.359375 2416.320312 901.878906 Z M 2105.75 757.238281 C 2104.539062 758.171875 2103.5 759.339844 2102.71875 760.710938 C 2101.890625 762.140625 2101.390625 763.691406 2101.21875 765.269531 L 2087.890625 867.53125 C 2087.28125 872.269531 2089.578125 876.910156 2093.71875 879.289062 C 2097.859375 881.679688 2103.03125 881.328125 2106.820312 878.410156 L 2155.351562 841.070312 L 2148.140625 831.710938 C 2144.179688 826.550781 2145.128906 819.160156 2150.25 815.179688 L 2115.011719 842.300781 L 2123.140625 779.839844 L 2185.601562 787.980469 L 2150.359375 815.101562 C 2155.519531 811.160156 2162.910156 812.140625 2166.871094 817.300781 L 2174.070312 826.660156 L 2222.609375 789.308594 C 2226.390625 786.390625 2228.058594 781.488281 2226.808594 776.871094 C 2225.570312 772.261719 2221.671875 768.851562 2216.929688 768.230469 L 2114.480469 754.890625 C 2111.308594 754.480469 2108.179688 755.371094 2105.75 757.238281 Z M 2150.308594 815.140625 C 2150.238281 815.191406 2150.179688 815.238281 2150.109375 815.28125 L 2150.109375 815.289062 C 2150.109375 815.28125 2150.109375 815.289062 2150.109375 815.289062 C 2147.640625 817.269531 2146.171875 820.050781 2145.789062 822.96875 L 2145.789062 822.980469 C 2145.398438 825.96875 2146.160156 829.121094 2148.140625 831.710938 L 2398.070312 1156.480469 L 2426.351562 1160.171875 C 2429.589844 1160.589844 2432.339844 1162.28125 2434.191406 1164.679688 L 2174.070312 826.660156 L 2166.871094 817.300781 C 2164.878906 814.710938 2162.03125 813.179688 2159.039062 812.78125 C 2156.109375 812.398438 2153.039062 813.109375 2150.5 814.988281 L 2150.46875 815.019531 C 2150.410156 815.058594 2150.359375 815.101562 2150.308594 815.140625 Z M 2112.308594 1005.550781 C 2091.148438 1021.828125 2087.199219 1052.179688 2103.480469 1073.339844 C 2117.308594 1091.308594 2141.269531 1096.871094 2161.140625 1088.179688 L 2145.808594 1068.25 C 2137.128906 1069.679688 2127.949219 1066.398438 2122.199219 1058.929688 C 2116.289062 1051.25 2115.601562 1041.191406 2119.570312 1033.03125 C 2121.191406 1029.699219 2123.589844 1026.691406 2126.71875 1024.28125 C 2129.949219 1021.789062 2133.589844 1020.230469 2137.339844 1019.550781 C 2146.160156 1017.941406 2155.539062 1021.199219 2161.378906 1028.789062 C 2167.058594 1036.179688 2167.921875 1045.75 2164.449219 1053.738281 L 2179.820312 1073.71875 C 2193.171875 1056.738281 2193.871094 1032.269531 2180.101562 1014.378906 C 2163.820312 993.21875 2133.46875 989.269531 2112.308594 1005.550781 Z M 2164.449219 1053.738281 C 2162.839844 1057.441406 2160.289062 1060.808594 2156.859375 1063.449219 C 2153.511719 1066.03125 2149.710938 1067.609375 2145.808594 1068.25 L 2161.140625 1088.179688 L 2210.558594 1152.398438 C 2212.46875 1154.878906 2215.289062 1156.5 2218.398438 1156.910156 L 2423.300781 1183.601562 C 2426.53125 1184.019531 2429.628906 1183.089844 2432.03125 1181.25 C 2434.429688 1179.398438 2436.121094 1176.640625 2436.539062 1173.410156 C 2437.378906 1166.941406 2432.820312 1161.011719 2426.351562 1160.171875 L 2398.070312 1156.480469 L 2226.308594 1134.109375 L 2179.828125 1073.710938 L 2179.828125 1073.71875 L 2164.449219 1053.730469 Z M 2434.269531 1164.789062 C 2436.058594 1167.171875 2436.949219 1170.21875 2436.539062 1173.410156 C 2436.121094 1176.640625 2434.429688 1179.398438 2432.03125 1181.25 C 2429.628906 1183.089844 2426.53125 1184.019531 2423.300781 1183.601562 L 2418.449219 1182.960938 L 2460.019531 1236.980469 C 2463.988281 1242.160156 2471.410156 1243.121094 2476.578125 1239.140625 C 2481.75 1235.160156 2482.71875 1227.75 2478.738281 1222.570312 Z M 2434.269531 1164.789062 "/>
<path fill-rule="nonzero" fill="rgb(0%, 0%, 0%)" fill-opacity="1" d="M 1209.941406 849 C 1209.78125 849.121094 1209.679688 849.308594 1209.648438 849.5 C 1209.628906 849.699219 1209.679688 849.898438 1209.808594 850.058594 L 1252.300781 905.28125 C 1252.421875 905.441406 1252.601562 905.550781 1252.800781 905.570312 C 1253 905.601562 1253.199219 905.550781 1253.359375 905.429688 L 1308.578125 862.929688 C 1308.910156 862.679688 1308.96875 862.199219 1308.71875 861.871094 L 1308.710938 861.871094 L 1266.230469 806.648438 C 1265.96875 806.320312 1265.488281 806.25 1265.160156 806.511719 Z M 1209.941406 849 "/>
<path fill-rule="nonzero" fill="rgb(0%, 0%, 0%)" fill-opacity="1" d="M 1094.148438 938.109375 C 1093.988281 938.230469 1093.878906 938.410156 1093.859375 938.609375 C 1093.828125 938.808594 1093.890625 939.011719 1094.011719 939.171875 L 1136.5 994.390625 C 1136.628906 994.550781 1136.808594 994.660156 1137.011719 994.679688 C 1137.210938 994.710938 1137.410156 994.648438 1137.570312 994.53125 L 1192.789062 952.03125 C 1193.121094 951.78125 1193.179688 951.308594 1192.921875 950.96875 L 1150.429688 895.75 C 1150.179688 895.421875 1149.699219 895.359375 1149.371094 895.609375 Z M 1094.148438 938.109375 "/>
<path fill-rule="nonzero" fill="rgb(0%, 0%, 0%)" fill-opacity="1" d="M 1496.160156 1282.78125 C 1498 1281.371094 1500.351562 1280.691406 1502.738281 1281.011719 L 1605.191406 1294.351562 C 1608.75 1294.820312 1611.691406 1297.378906 1612.628906 1300.859375 C 1613.558594 1304.328125 1612.308594 1308.019531 1609.460938 1310.210938 L 1560.929688 1347.558594 C 1559.648438 1348.550781 1559.410156 1350.378906 1560.390625 1351.660156 L 1758.558594 1609.179688 C 1759.28125 1610.117188 1760.488281 1610.527344 1761.640625 1610.21875 C 1762.011719 1610.117188 1762.359375 1609.945312 1762.660156 1609.714844 C 1763.261719 1609.25 1763.671875 1608.558594 1763.769531 1607.773438 L 1786.148438 1436.011719 C 1786.25 1435.238281 1786.039062 1434.460938 1785.570312 1433.851562 L 1749.890625 1387.488281 C 1749.410156 1386.871094 1748.71875 1386.46875 1747.949219 1386.371094 C 1747.179688 1386.269531 1746.398438 1386.480469 1745.789062 1386.949219 L 1725.410156 1402.640625 C 1723.539062 1404.070312 1721.179688 1404.710938 1718.839844 1404.410156 C 1716.5 1404.101562 1714.378906 1402.878906 1712.941406 1401.011719 L 1668.390625 1343.109375 C 1666.949219 1341.25 1666.308594 1338.878906 1666.621094 1336.539062 C 1666.921875 1334.210938 1668.140625 1332.089844 1670.011719 1330.648438 L 1727.910156 1286.089844 C 1731.800781 1283.101562 1737.378906 1283.828125 1740.378906 1287.71875 L 1784.929688 1345.621094 C 1787.921875 1349.511719 1787.191406 1355.089844 1783.308594 1358.078125 L 1764.511719 1372.539062 C 1763.230469 1373.53125 1763 1375.359375 1763.980469 1376.640625 L 1802.640625 1426.878906 C 1804.078125 1428.75 1804.71875 1431.121094 1804.410156 1433.449219 L 1778.359375 1633.5 C 1778.25 1634.269531 1778.46875 1635.046875 1778.941406 1635.664062 L 1858.359375 1738.867188 C 1858.859375 1739.519531 1859.609375 1739.929688 1860.429688 1739.996094 C 1861.101562 1740.050781 1861.761719 1739.875 1862.308594 1739.507812 L 1862.289062 1739.519531 C 1897.230469 1719.742188 1942.308594 1728.179688 1967.511719 1760.921875 C 1995.109375 1796.789062 1988.410156 1848.238281 1952.539062 1875.839844 C 1916.671875 1903.441406 1865.21875 1896.738281 1837.621094 1860.871094 C 1812.410156 1828.105469 1815.820312 1782.328125 1843.949219 1753.621094 L 1843.941406 1753.628906 C 1845.039062 1752.597656 1845.179688 1750.902344 1844.261719 1749.707031 L 1809.398438 1704.402344 C 1808.929688 1703.789062 1808.230469 1703.386719 1807.460938 1703.285156 L 1607.410156 1677.230469 C 1605.070312 1676.925781 1602.949219 1675.703125 1601.511719 1673.835938 L 1552.230469 1609.792969 L 1552.25 1609.78125 C 1551.460938 1608.589844 1549.929688 1608.132812 1548.628906 1608.707031 C 1529.949219 1616.890625 1507.421875 1611.660156 1494.429688 1594.78125 C 1479.128906 1574.898438 1482.851562 1546.390625 1502.730469 1531.089844 C 1522.609375 1515.789062 1551.121094 1519.5 1566.421875 1539.378906 C 1579.359375 1556.199219 1578.699219 1579.199219 1566.148438 1595.148438 C 1565.238281 1596.308594 1565.328125 1597.964844 1566.371094 1599.011719 L 1612.621094 1659.113281 C 1613.089844 1659.730469 1613.789062 1660.128906 1614.558594 1660.230469 L 1786.320312 1682.601562 C 1787.109375 1682.707031 1787.878906 1682.484375 1788.480469 1682.019531 C 1788.789062 1681.792969 1789.039062 1681.503906 1789.230469 1681.164062 C 1789.820312 1680.136719 1789.738281 1678.859375 1789.019531 1677.921875 L 1546.300781 1362.5 C 1545.828125 1361.890625 1545.128906 1361.488281 1544.359375 1361.390625 C 1543.589844 1361.289062 1542.820312 1361.5 1542.199219 1361.96875 L 1493.671875 1399.320312 C 1490.820312 1401.511719 1486.929688 1401.769531 1483.808594 1399.980469 C 1480.691406 1398.179688 1478.960938 1394.691406 1479.429688 1391.121094 L 1492.691406 1289.328125 L 1492.710938 1289.320312 C 1492.710938 1289.269531 1492.71875 1289.210938 1492.71875 1289.160156 C 1492.820312 1287.859375 1493.210938 1286.570312 1493.878906 1285.390625 C 1494.480469 1284.359375 1495.261719 1283.480469 1496.160156 1282.78125 Z M 1097.351562 1301.640625 C 1096.730469 1302.109375 1096.328125 1302.808594 1096.230469 1303.578125 C 1096.128906 1304.339844 1096.339844 1305.121094 1096.808594 1305.738281 L 1608.539062 1970.734375 C 1608.628906 1970.84375 1608.710938 1970.945312 1608.808594 1971.039062 L 1608.789062 1971.058594 C 1720.089844 2114.75 1926.75 2141.417969 2070.890625 2030.492188 C 2214.460938 1920.015625 2241.980469 1714.644531 2133.148438 1570.351562 L 2133.128906 1570.359375 C 2133.269531 1570.078125 2133.359375 1569.769531 2133.398438 1569.449219 C 2133.5 1568.679688 2133.289062 1567.910156 2132.820312 1567.289062 C 2132.140625 1566.398438 2131.039062 1566.019531 2130.011719 1566.191406 L 2129.988281 1566.199219 L 1619.839844 903.261719 C 1618.859375 901.980469 1617.019531 901.738281 1615.75 902.71875 Z M 982.585938 915.691406 C 980.101562 917.601562 978.480469 920.421875 978.074219 923.53125 C 977.671875 926.628906 978.515625 929.769531 980.425781 932.261719 L 1151.429688 1154.480469 L 1170.160156 1140.070312 L 1006.359375 927.210938 L 1277.121094 718.859375 L 1358.96875 825.21875 L 1358.96875 825.230469 C 1358.980469 825.25 1359 825.269531 1359.019531 825.289062 L 1440.921875 931.71875 L 1459.640625 917.308594 L 1288.640625 695.089844 C 1284.660156 689.910156 1277.238281 688.949219 1272.070312 692.929688 Z M 1102.898438 1191.828125 C 1100.421875 1193.738281 1098.789062 1196.558594 1098.390625 1199.671875 C 1097.980469 1202.78125 1098.828125 1205.921875 1100.738281 1208.398438 L 1144.539062 1265.320312 L 1568.550781 939.039062 L 1524.75 882.121094 C 1520.769531 876.949219 1513.351562 875.980469 1508.179688 879.960938 L 1459.640625 917.308594 L 1316.730469 1027.289062 L 1316.710938 1027.308594 L 1316.699219 1027.308594 L 1312.539062 1030.519531 L 1314.640625 1028.898438 L 1312.679688 1030.410156 L 1170.160156 1140.070312 L 1163.519531 1145.191406 Z M 1126.671875 1203.351562 L 1319.949219 1054.621094 L 1513.230469 905.890625 L 1543.371094 945.070312 L 1156.820312 1242.53125 Z M 1126.671875 1203.351562 "/>
</svg>
